<?xml version="1.0" encoding="UTF-8" standalone="no"?>
<!-- Created with Inkscape (http://www.inkscape.org/) -->

<svg
   xmlns:dc="http://purl.org/dc/elements/1.1/"
   xmlns:cc="http://creativecommons.org/ns#"
   xmlns:rdf="http://www.w3.org/1999/02/22-rdf-syntax-ns#"
   xmlns:svg="http://www.w3.org/2000/svg"
   xmlns="http://www.w3.org/2000/svg"
   xmlns:sodipodi="http://sodipodi.sourceforge.net/DTD/sodipodi-0.dtd"
   xmlns:inkscape="http://www.inkscape.org/namespaces/inkscape"
   width="70mm"
   height="70mm"
   viewBox="0 0 70 70"
   version="1.1"
   id="svg3751"
   inkscape:version="0.92.3 (2405546, 2018-03-11)"
   sodipodi:docname="logo-s.svg">
  <defs
     id="defs3745" />
  <sodipodi:namedview
     id="base"
     pagecolor="#ffffff"
     bordercolor="#666666"
     borderopacity="1.0"
     inkscape:pageopacity="0.0"
     inkscape:pageshadow="2"
     inkscape:zoom="0.35"
     inkscape:cx="400"
     inkscape:cy="560"
     inkscape:document-units="mm"
     inkscape:current-layer="layer1"
     showgrid="false"
     inkscape:window-width="1366"
     inkscape:window-height="705"
     inkscape:window-x="-8"
     inkscape:window-y="305"
     inkscape:window-maximized="1" />
  <metadata
     id="metadata3748">
    <rdf:RDF>
      <cc:Work
         rdf:about="">
        <dc:format>image/svg+xml</dc:format>
        <dc:type
           rdf:resource="http://purl.org/dc/dcmitype/StillImage" />
        <dc:title></dc:title>
      </cc:Work>
    </rdf:RDF>
  </metadata>
  <g
     inkscape:label="Capa 1"
     inkscape:groupmode="layer"
     id="layer1"
     transform="translate(0,-227)">
    <path
       style="fill:#fd1812;fill-opacity:1;stroke-width:0.22868425"
       d="m 24.107076,293.8649 c -4.88054,-0.53647 -8.483045,-1.71141 -11.20553,-3.65463 -1.762977,-1.25836 -2.632025,-2.18211 -3.6524754,-3.88244 C 7.5464045,283.4908 6.8091983,279.05218 7.349963,274.89364 l 0.297355,-2.28686 7.086449,-0.0685 c 3.897547,-0.0375 7.600983,-0.007 8.229869,0.066 l 1.143422,0.13444 -0.0763,1.46782 c -0.163491,3.14753 1.30988,5.6008 4.121532,6.86256 3.820331,1.71449 9.869416,0.56854 12.781646,-2.42134 1.309908,-1.34484 1.825835,-2.41214 1.978189,-4.09236 0.154085,-1.69918 -0.221628,-2.7987 -1.389011,-4.06518 -1.502134,-1.62962 -3.358649,-2.39175 -9.640838,-3.95778 -1.509317,-0.37622 -2.950025,-0.77053 -3.201584,-0.87621 -0.251545,-0.10561 -1.22041,-0.42307 -2.153024,-0.70529 -2.182697,-0.66049 -6.755163,-2.71277 -8.089592,-3.6309 -1.902165,-1.30873 -3.383064,-3.36927 -4.303315,-5.98765 -0.44108,-1.25502 -0.517552,-1.92575 -0.507417,-4.45063 0.01009,-2.52705 0.101894,-3.27188 0.611881,-4.96677 2.53518,-8.42542 7.210949,-13.44891 15.241864,-16.37536 5.863188,-2.13652 13.305167,-2.84495 19.781192,-1.883 8.502271,1.26295 13.357816,4.67125 14.857549,10.42913 0.408558,1.56856 0.427906,5.21085 0.03939,7.42191 l -0.261168,1.48645 -8.289801,0.0602 -8.289807,0.0598 v -1.61014 c 0,-1.32848 -0.118005,-1.84393 -0.674499,-2.94634 -1.117763,-2.21431 -3.330239,-3.13272 -7.085938,-2.94147 -2.771521,0.14128 -4.363316,0.83544 -6.216541,2.71155 -2.464546,2.49504 -2.687689,5.31318 -0.592132,7.47832 1.586624,1.6393 3.748962,2.48787 10.949592,4.29697 2.72587,0.68486 5.645591,1.50469 6.488252,1.82187 8.251234,3.10576 11.351515,7.59878 10.64606,15.42855 -0.362762,4.02618 -1.800451,7.98645 -4.16149,11.46324 -1.078028,1.58747 -3.635556,4.17486 -5.040196,5.09907 -0.54845,0.36083 -1.261629,0.83515 -1.584834,1.05405 -2.246584,1.52137 -7.505253,3.55993 -11.086269,4.29766 -2.448402,0.50438 -7.613319,0.96332 -10.394119,0.92357 -0.943321,-0.0144 -2.950024,-0.1604 -4.459337,-0.32619 z"
       id="path3734"
       inkscape:connector-curvature="0" />
  </g>
</svg>
